<svg id="visual" viewBox="0 0 900 600" width="900" height="600" xmlns="http://www.w3.org/2000/svg" xmlns:xlink="http://www.w3.org/1999/xlink" version="1.1"><rect x="0" y="0" width="900" height="600" fill="#f2f606"></rect><path d="M0 59L6.5 60.5C13 62 26 65 39 63.3C52 61.7 65 55.3 78 51.2C91 47 104 45 117.2 38.8C130.3 32.7 143.7 22.3 156.8 28.3C170 34.3 183 56.7 196 58.2C209 59.7 222 40.3 235 36.5C248 32.7 261 44.3 274 44.3C287 44.3 300 32.7 313 37.2C326 41.7 339 62.3 352 65.5C365 68.7 378 54.3 391 45.8C404 37.3 417 34.7 430.2 35.8C443.3 37 456.7 42 469.8 42C483 42 496 37 509 30C522 23 535 14 548 9.8C561 5.7 574 6.3 587 14.7C600 23 613 39 626 42.2C639 45.3 652 35.7 665 32.2C678 28.7 691 31.3 704 28C717 24.7 730 15.3 743.2 19.7C756.3 24 769.7 42 782.8 53.3C796 64.7 809 69.3 822 63.2C835 57 848 40 861 34.5C874 29 887 35 893.5 38L900 41L900 601L893.5 601C887 601 874 601 861 601C848 601 835 601 822 601C809 601 796 601 782.8 601C769.7 601 756.3 601 743.2 601C730 601 717 601 704 601C691 601 678 601 665 601C652 601 639 601 626 601C613 601 600 601 587 601C574 601 561 601 548 601C535 601 522 601 509 601C496 601 483 601 469.8 601C456.7 601 443.3 601 430.2 601C417 601 404 601 391 601C378 601 365 601 352 601C339 601 326 601 313 601C300 601 287 601 274 601C261 601 248 601 235 601C222 601 209 601 196 601C183 601 170 601 156.8 601C143.7 601 130.3 601 117.2 601C104 601 91 601 78 601C65 601 52 601 39 601C26 601 13 601 6.5 601L0 601Z" fill="#f2f606"></path><path d="M0 89L6.5 95.2C13 101.3 26 113.7 39 109C52 104.3 65 82.7 78 78.8C91 75 104 89 117.2 96.5C130.3 104 143.7 105 156.8 97.5C170 90 183 74 196 78.3C209 82.7 222 107.3 235 116.8C248 126.3 261 120.7 274 110.5C287 100.3 300 85.7 313 81C326 76.3 339 81.7 352 86.2C365 90.7 378 94.3 391 92.7C404 91 417 84 430.2 82.8C443.3 81.7 456.7 86.3 469.8 90.8C483 95.3 496 99.7 509 98.8C522 98 535 92 548 85.7C561 79.3 574 72.7 587 68C600 63.3 613 60.7 626 63.8C639 67 652 76 665 87.3C678 98.7 691 112.3 704 113.5C717 114.7 730 103.3 743.2 98.3C756.3 93.3 769.7 94.7 782.8 101C796 107.3 809 118.7 822 116.3C835 114 848 98 861 89.7C874 81.3 887 80.7 893.5 80.3L900 80L900 601L893.5 601C887 601 874 601 861 601C848 601 835 601 822 601C809 601 796 601 782.8 601C769.7 601 756.3 601 743.2 601C730 601 717 601 704 601C691 601 678 601 665 601C652 601 639 601 626 601C613 601 600 601 587 601C574 601 561 601 548 601C535 601 522 601 509 601C496 601 483 601 469.8 601C456.7 601 443.3 601 430.2 601C417 601 404 601 391 601C378 601 365 601 352 601C339 601 326 601 313 601C300 601 287 601 274 601C261 601 248 601 235 601C222 601 209 601 196 601C183 601 170 601 156.8 601C143.7 601 130.3 601 117.2 601C104 601 91 601 78 601C65 601 52 601 39 601C26 601 13 601 6.5 601L0 601Z" fill="#ffd000"></path><path d="M0 178L6.5 174.3C13 170.7 26 163.3 39 162C52 160.7 65 165.3 78 156.2C91 147 104 124 117.2 125C130.3 126 143.7 151 156.8 157.5C170 164 183 152 196 148C209 144 222 148 235 150.3C248 152.7 261 153.3 274 151.2C287 149 300 144 313 147C326 150 339 161 352 165.8C365 170.7 378 169.3 391 160.5C404 151.7 417 135.3 430.2 131.5C443.3 127.7 456.7 136.3 469.8 140.8C483 145.3 496 145.7 509 139C522 132.3 535 118.7 548 121.8C561 125 574 145 587 147.8C600 150.7 613 136.3 626 130.7C639 125 652 128 665 135C678 142 691 153 704 157.7C717 162.3 730 160.7 743.2 150.7C756.3 140.7 769.7 122.3 782.8 125.2C796 128 809 152 822 162.5C835 173 848 170 861 170.8C874 171.7 887 176.3 893.5 178.7L900 181L900 601L893.5 601C887 601 874 601 861 601C848 601 835 601 822 601C809 601 796 601 782.8 601C769.7 601 756.3 601 743.2 601C730 601 717 601 704 601C691 601 678 601 665 601C652 601 639 601 626 601C613 601 600 601 587 601C574 601 561 601 548 601C535 601 522 601 509 601C496 601 483 601 469.8 601C456.7 601 443.3 601 430.2 601C417 601 404 601 391 601C378 601 365 601 352 601C339 601 326 601 313 601C300 601 287 601 274 601C261 601 248 601 235 601C222 601 209 601 196 601C183 601 170 601 156.8 601C143.7 601 130.3 601 117.2 601C104 601 91 601 78 601C65 601 52 601 39 601C26 601 13 601 6.5 601L0 601Z" fill="#ffaa1f"></path><path d="M0 167L6.5 175.5C13 184 26 201 39 211C52 221 65 224 78 224.3C91 224.7 104 222.3 117.2 213.7C130.3 205 143.7 190 156.8 186.5C170 183 183 191 196 187.2C209 183.3 222 167.7 235 158.7C248 149.7 261 147.3 274 156.3C287 165.3 300 185.7 313 189.8C326 194 339 182 352 172C365 162 378 154 391 156.8C404 159.7 417 173.3 430.2 177.7C443.3 182 456.7 177 469.8 175.8C483 174.7 496 177.3 509 179.3C522 181.3 535 182.7 548 188.2C561 193.7 574 203.3 587 207.2C600 211 613 209 626 210.8C639 212.7 652 218.3 665 212.5C678 206.7 691 189.3 704 185.2C717 181 730 190 743.2 192.8C756.3 195.7 769.7 192.3 782.8 184.8C796 177.3 809 165.7 822 158.8C835 152 848 150 861 158.5C874 167 887 186 893.5 195.5L900 205L900 601L893.5 601C887 601 874 601 861 601C848 601 835 601 822 601C809 601 796 601 782.8 601C769.7 601 756.3 601 743.2 601C730 601 717 601 704 601C691 601 678 601 665 601C652 601 639 601 626 601C613 601 600 601 587 601C574 601 561 601 548 601C535 601 522 601 509 601C496 601 483 601 469.8 601C456.7 601 443.3 601 430.2 601C417 601 404 601 391 601C378 601 365 601 352 601C339 601 326 601 313 601C300 601 287 601 274 601C261 601 248 601 235 601C222 601 209 601 196 601C183 601 170 601 156.8 601C143.7 601 130.3 601 117.2 601C104 601 91 601 78 601C65 601 52 601 39 601C26 601 13 601 6.5 601L0 601Z" fill="#ff8737"></path><path d="M0 251L6.5 244.2C13 237.3 26 223.7 39 220.8C52 218 65 226 78 223C91 220 104 206 117.2 205.8C130.3 205.7 143.7 219.3 156.8 225.7C170 232 183 231 196 229.2C209 227.3 222 224.7 235 220.2C248 215.7 261 209.3 274 216.7C287 224 300 245 313 248C326 251 339 236 352 227.2C365 218.3 378 215.7 391 220.7C404 225.7 417 238.3 430.2 239.7C443.3 241 456.7 231 469.8 234.2C483 237.3 496 253.7 509 249.7C522 245.7 535 221.3 548 215.2C561 209 574 221 587 222.2C600 223.3 613 213.7 626 218.2C639 222.7 652 241.3 665 243.7C678 246 691 232 704 226.3C717 220.7 730 223.3 743.2 219.7C756.3 216 769.7 206 782.8 201.2C796 196.3 809 196.7 822 207.5C835 218.3 848 239.7 861 243.8C874 248 887 235 893.5 228.5L900 222L900 601L893.5 601C887 601 874 601 861 601C848 601 835 601 822 601C809 601 796 601 782.8 601C769.7 601 756.3 601 743.2 601C730 601 717 601 704 601C691 601 678 601 665 601C652 601 639 601 626 601C613 601 600 601 587 601C574 601 561 601 548 601C535 601 522 601 509 601C496 601 483 601 469.8 601C456.7 601 443.3 601 430.2 601C417 601 404 601 391 601C378 601 365 601 352 601C339 601 326 601 313 601C300 601 287 601 274 601C261 601 248 601 235 601C222 601 209 601 196 601C183 601 170 601 156.8 601C143.7 601 130.3 601 117.2 601C104 601 91 601 78 601C65 601 52 601 39 601C26 601 13 601 6.5 601L0 601Z" fill="#f06749"></path><path d="M0 295L6.5 284.7C13 274.3 26 253.7 39 244.7C52 235.7 65 238.3 78 245.7C91 253 104 265 117.2 270.3C130.3 275.7 143.7 274.3 156.8 278.5C170 282.7 183 292.3 196 294C209 295.7 222 289.3 235 285.3C248 281.3 261 279.7 274 284.5C287 289.3 300 300.7 313 306.8C326 313 339 314 352 311.3C365 308.7 378 302.3 391 291.5C404 280.7 417 265.3 430.2 258.8C443.3 252.3 456.7 254.7 469.8 262.7C483 270.7 496 284.3 509 282.8C522 281.3 535 264.7 548 266.2C561 267.7 574 287.3 587 292.2C600 297 613 287 626 287.7C639 288.3 652 299.7 665 302.2C678 304.7 691 298.3 704 291C717 283.7 730 275.3 743.2 271C756.3 266.7 769.7 266.3 782.8 270.7C796 275 809 284 822 281.7C835 279.3 848 265.7 861 257.2C874 248.7 887 245.3 893.5 243.7L900 242L900 601L893.5 601C887 601 874 601 861 601C848 601 835 601 822 601C809 601 796 601 782.8 601C769.7 601 756.3 601 743.2 601C730 601 717 601 704 601C691 601 678 601 665 601C652 601 639 601 626 601C613 601 600 601 587 601C574 601 561 601 548 601C535 601 522 601 509 601C496 601 483 601 469.8 601C456.7 601 443.3 601 430.2 601C417 601 404 601 391 601C378 601 365 601 352 601C339 601 326 601 313 601C300 601 287 601 274 601C261 601 248 601 235 601C222 601 209 601 196 601C183 601 170 601 156.8 601C143.7 601 130.3 601 117.2 601C104 601 91 601 78 601C65 601 52 601 39 601C26 601 13 601 6.5 601L0 601Z" fill="#d74d56"></path><path d="M0 288L6.5 288C13 288 26 288 39 301C52 314 65 340 78 353.2C91 366.3 104 366.7 117.2 352.2C130.3 337.7 143.7 308.3 156.8 301.3C170 294.3 183 309.7 196 320.7C209 331.7 222 338.3 235 331.7C248 325 261 305 274 297.5C287 290 300 295 313 295.3C326 295.7 339 291.3 352 287.3C365 283.3 378 279.7 391 287.3C404 295 417 314 430.2 321.8C443.3 329.7 456.7 326.3 469.8 318.8C483 311.3 496 299.7 509 305.7C522 311.7 535 335.3 548 336.2C561 337 574 315 587 307.2C600 299.3 613 305.7 626 311.8C639 318 652 324 665 329.5C678 335 691 340 704 332.5C717 325 730 305 743.2 299C756.3 293 769.7 301 782.8 314.8C796 328.7 809 348.3 822 352.8C835 357.3 848 346.7 861 337.2C874 327.7 887 319.3 893.5 315.2L900 311L900 601L893.5 601C887 601 874 601 861 601C848 601 835 601 822 601C809 601 796 601 782.8 601C769.7 601 756.3 601 743.2 601C730 601 717 601 704 601C691 601 678 601 665 601C652 601 639 601 626 601C613 601 600 601 587 601C574 601 561 601 548 601C535 601 522 601 509 601C496 601 483 601 469.8 601C456.7 601 443.3 601 430.2 601C417 601 404 601 391 601C378 601 365 601 352 601C339 601 326 601 313 601C300 601 287 601 274 601C261 601 248 601 235 601C222 601 209 601 196 601C183 601 170 601 156.8 601C143.7 601 130.3 601 117.2 601C104 601 91 601 78 601C65 601 52 601 39 601C26 601 13 601 6.5 601L0 601Z" fill="#b63b5e"></path><path d="M0 376L6.5 370C13 364 26 352 39 356.2C52 360.3 65 380.7 78 380.2C91 379.7 104 358.3 117.2 355.3C130.3 352.3 143.7 367.7 156.8 368.7C170 369.7 183 356.3 196 349.7C209 343 222 343 235 346.5C248 350 261 357 274 359.2C287 361.3 300 358.7 313 354C326 349.3 339 342.7 352 349.3C365 356 378 376 391 386.7C404 397.3 417 398.7 430.2 390.2C443.3 381.7 456.7 363.3 469.8 362.2C483 361 496 377 509 377.5C522 378 535 363 548 357.3C561 351.7 574 355.3 587 357.2C600 359 613 359 626 355C639 351 652 343 665 342C678 341 691 347 704 354C717 361 730 369 743.2 374C756.3 379 769.7 381 782.8 377.3C796 373.7 809 364.3 822 354.8C835 345.3 848 335.7 861 337.8C874 340 887 354 893.5 361L900 368L900 601L893.5 601C887 601 874 601 861 601C848 601 835 601 822 601C809 601 796 601 782.8 601C769.7 601 756.3 601 743.2 601C730 601 717 601 704 601C691 601 678 601 665 601C652 601 639 601 626 601C613 601 600 601 587 601C574 601 561 601 548 601C535 601 522 601 509 601C496 601 483 601 469.8 601C456.7 601 443.3 601 430.2 601C417 601 404 601 391 601C378 601 365 601 352 601C339 601 326 601 313 601C300 601 287 601 274 601C261 601 248 601 235 601C222 601 209 601 196 601C183 601 170 601 156.8 601C143.7 601 130.3 601 117.2 601C104 601 91 601 78 601C65 601 52 601 39 601C26 601 13 601 6.5 601L0 601Z" fill="#902f5f"></path><path d="M0 388L6.5 396.3C13 404.7 26 421.3 39 422.7C52 424 65 410 78 408.8C91 407.7 104 419.3 117.2 420.2C130.3 421 143.7 411 156.8 413.3C170 415.7 183 430.3 196 430.2C209 430 222 415 235 411.2C248 407.3 261 414.7 274 416.5C287 418.3 300 414.7 313 411.7C326 408.7 339 406.3 352 401.8C365 397.3 378 390.7 391 385.3C404 380 417 376 430.2 380C443.3 384 456.7 396 469.8 406.8C483 417.7 496 427.3 509 435.8C522 444.3 535 451.7 548 444C561 436.3 574 413.7 587 410.3C600 407 613 423 626 423.2C639 423.3 652 407.7 665 407.3C678 407 691 422 704 422.5C717 423 730 409 743.2 402.3C756.3 395.7 769.7 396.3 782.8 400.2C796 404 809 411 822 416.7C835 422.3 848 426.7 861 424.8C874 423 887 415 893.5 411L900 407L900 601L893.5 601C887 601 874 601 861 601C848 601 835 601 822 601C809 601 796 601 782.8 601C769.7 601 756.3 601 743.2 601C730 601 717 601 704 601C691 601 678 601 665 601C652 601 639 601 626 601C613 601 600 601 587 601C574 601 561 601 548 601C535 601 522 601 509 601C496 601 483 601 469.8 601C456.7 601 443.3 601 430.2 601C417 601 404 601 391 601C378 601 365 601 352 601C339 601 326 601 313 601C300 601 287 601 274 601C261 601 248 601 235 601C222 601 209 601 196 601C183 601 170 601 156.8 601C143.7 601 130.3 601 117.2 601C104 601 91 601 78 601C65 601 52 601 39 601C26 601 13 601 6.5 601L0 601Z" fill="#692859"></path><path d="M0 493L6.5 484.7C13 476.3 26 459.7 39 459C52 458.3 65 473.7 78 474.8C91 476 104 463 117.2 461.7C130.3 460.3 143.7 470.7 156.8 479.7C170 488.7 183 496.3 196 495.8C209 495.3 222 486.7 235 476.5C248 466.3 261 454.7 274 445C287 435.3 300 427.7 313 437.2C326 446.7 339 473.3 352 480.7C365 488 378 476 391 463.5C404 451 417 438 430.2 435.3C443.3 432.7 456.7 440.3 469.8 448.2C483 456 496 464 509 471.8C522 479.7 535 487.3 548 486C561 484.7 574 474.3 587 468.7C600 463 613 462 626 458C639 454 652 447 665 439.3C678 431.7 691 423.3 704 422.7C717 422 730 429 743.2 438.5C756.3 448 769.7 460 782.8 470C796 480 809 488 822 485.3C835 482.7 848 469.3 861 465.7C874 462 887 468 893.5 471L900 474L900 601L893.5 601C887 601 874 601 861 601C848 601 835 601 822 601C809 601 796 601 782.8 601C769.7 601 756.3 601 743.2 601C730 601 717 601 704 601C691 601 678 601 665 601C652 601 639 601 626 601C613 601 600 601 587 601C574 601 561 601 548 601C535 601 522 601 509 601C496 601 483 601 469.8 601C456.7 601 443.3 601 430.2 601C417 601 404 601 391 601C378 601 365 601 352 601C339 601 326 601 313 601C300 601 287 601 274 601C261 601 248 601 235 601C222 601 209 601 196 601C183 601 170 601 156.8 601C143.7 601 130.3 601 117.2 601C104 601 91 601 78 601C65 601 52 601 39 601C26 601 13 601 6.5 601L0 601Z" fill="#43204c"></path><path d="M0 485L6.5 486C13 487 26 489 39 485.7C52 482.3 65 473.7 78 480.5C91 487.3 104 509.7 117.2 509.3C130.3 509 143.7 486 156.8 479.7C170 473.3 183 483.7 196 497.8C209 512 222 530 235 527C248 524 261 500 274 498.5C287 497 300 518 313 529.2C326 540.3 339 541.7 352 542.8C365 544 378 545 391 537.2C404 529.3 417 512.7 430.2 513C443.3 513.3 456.7 530.7 469.8 526.8C483 523 496 498 509 490C522 482 535 491 548 503C561 515 574 530 587 532.8C600 535.7 613 526.3 626 520.5C639 514.7 652 512.3 665 512C678 511.7 691 513.3 704 506.2C717 499 730 483 743.2 482.3C756.3 481.7 769.7 496.3 782.8 505.3C796 514.3 809 517.7 822 523.8C835 530 848 539 861 542.2C874 545.3 887 542.7 893.5 541.3L900 540L900 601L893.5 601C887 601 874 601 861 601C848 601 835 601 822 601C809 601 796 601 782.8 601C769.7 601 756.3 601 743.2 601C730 601 717 601 704 601C691 601 678 601 665 601C652 601 639 601 626 601C613 601 600 601 587 601C574 601 561 601 548 601C535 601 522 601 509 601C496 601 483 601 469.8 601C456.7 601 443.3 601 430.2 601C417 601 404 601 391 601C378 601 365 601 352 601C339 601 326 601 313 601C300 601 287 601 274 601C261 601 248 601 235 601C222 601 209 601 196 601C183 601 170 601 156.8 601C143.7 601 130.3 601 117.2 601C104 601 91 601 78 601C65 601 52 601 39 601C26 601 13 601 6.5 601L0 601Z" fill="#201739"></path><path d="M0 536L6.5 544.7C13 553.3 26 570.7 39 566.8C52 563 65 538 78 531.2C91 524.3 104 535.7 117.2 539.2C130.3 542.7 143.7 538.3 156.8 542.8C170 547.3 183 560.7 196 563.7C209 566.7 222 559.3 235 561C248 562.7 261 573.3 274 566.3C287 559.3 300 534.7 313 526C326 517.3 339 524.7 352 535.8C365 547 378 562 391 568.8C404 575.7 417 574.3 430.2 566.2C443.3 558 456.7 543 469.8 544C483 545 496 562 509 571C522 580 535 581 548 577.3C561 573.7 574 565.3 587 556.7C600 548 613 539 626 545.2C639 551.3 652 572.7 665 578C678 583.3 691 572.7 704 565C717 557.3 730 552.7 743.2 557.2C756.3 561.7 769.7 575.3 782.8 570.2C796 565 809 541 822 534.7C835 528.3 848 539.7 861 546.5C874 553.3 887 555.7 893.5 556.8L900 558L900 601L893.5 601C887 601 874 601 861 601C848 601 835 601 822 601C809 601 796 601 782.8 601C769.7 601 756.3 601 743.2 601C730 601 717 601 704 601C691 601 678 601 665 601C652 601 639 601 626 601C613 601 600 601 587 601C574 601 561 601 548 601C535 601 522 601 509 601C496 601 483 601 469.8 601C456.7 601 443.3 601 430.2 601C417 601 404 601 391 601C378 601 365 601 352 601C339 601 326 601 313 601C300 601 287 601 274 601C261 601 248 601 235 601C222 601 209 601 196 601C183 601 170 601 156.8 601C143.7 601 130.3 601 117.2 601C104 601 91 601 78 601C65 601 52 601 39 601C26 601 13 601 6.5 601L0 601Z" fill="#020623"></path></svg>